<?xml version="1.0" encoding="utf-8"?>
<!-- Generator: Adobe Illustrator 15.1.0, SVG Export Plug-In . SVG Version: 6.00 Build 0)  -->
<svg version="1.2" baseProfile="tiny" id="Ebene_1" xmlns="http://www.w3.org/2000/svg" xmlns:xlink="http://www.w3.org/1999/xlink"
	 x="0px" y="0px" width="1176.378px" height="232.44px" viewBox="0 0 1176.378 232.44" xml:space="preserve">
<polygon fill="#FFFFFF" points="103.564,41.532 74.376,178.313 70.599,196.013 121.692,196.013 125.596,178.727 156.575,41.532 "/>
<path fill="#FFFFFF" d="M215.796,38.223c-11.995-13.332-34.4-5.204-47.729,6.802c-13.494,11.99-19.444,32.745-8.849,47.227
	c10.764,14.648,31.185,9.856,45.679-1.425C221.843,77.754,229.937,54.006,215.796,38.223z"/>
<polygon fill="#FFFFFF" points="103.564,41.532 74.376,178.313 70.599,196.013 121.692,196.013 125.596,178.727 156.575,41.532 "/>
<path fill="#FFFFFF" d="M215.796,38.223c-11.995-13.332-34.4-5.204-47.729,6.802c-13.494,11.99-19.444,32.745-8.849,47.227
	c10.764,14.648,31.185,9.856,45.679-1.425C221.843,77.754,229.937,54.006,215.796,38.223z"/>
<rect x="545.198" y="57.424" fill="#1E3370" width="41.977" height="100.759"/>
<path fill="#1E3370" d="M566.095,6.515c-12.684,0-23.038,8.931-23.038,19.475c0,10.538,9.998,19.824,23.038,19.824
	c12.685,0,23.226-8.746,23.226-19.824C589.321,15.083,578.958,6.515,566.095,6.515z"/>
<path fill="#1E3370" d="M456.044,54.218c-0.533,0-1.067,0-1.606,0c-38.765,0.71-64.674,24.827-64.674,54.847
	c0,29.293,23.767,51.626,64.674,53.05c1.246,0,2.681,0,4.109,0c28.233,0,47.703-8.932,55.204-24.111l-31.62-10.907
	c-4.459,8.048-13.225,12.15-26.087,12.15c-0.533,0-1.067,0-1.606,0c-15.899-0.71-24.83-9.108-25.186-24.294h25.186h65.391v-1.607
	C519.829,76.359,494.631,54.218,456.044,54.218z M454.438,94.944h-24.118c2.324-12.684,10.722-18.941,24.118-19.118h0.178
	c12.512,0,22.51,7.329,23.94,19.118H454.438z"/>
<path fill="#1E3370" d="M328.487,81.193V57.424h-39.661v100.759h41.807v-41.631c0-20.18,11.967-30.367,31.798-30.367
	c4.828,0,9.47,0.717,14.475,1.97l4.117-32.331c-5.013-0.363-8.944-0.542-11.797-0.542C350.82,55.283,336.174,64.398,328.487,81.193z
	"/>
<path fill="#1E3370" d="M612.372,107.991c0,33.398,26.263,54.125,61.446,54.125c11.078,0,21.088-2.498,30.73-6.969v-30.902
	c-6.955,6.244-13.753,8.932-22.683,8.932c-17.69,0-28.228-10.36-28.228-25.363c0-16.438,11.078-26.087,27.16-26.087
	c8.575,0,15.715,3.038,23.75,8.931V60.638c-9.458-4.813-18.93-6.42-30.191-6.42C638.096,54.218,612.372,76.359,612.372,107.991z"/>
<path fill="#1E3370" d="M814.415,54.218c-20.178,0-33.392,6.776-44.297,21.785c1.066-5.716,1.422-11.966,1.422-18.039V3.65h-41.266
	v154.533h41.266v-42.342c0-22.505,6.44-34.648,25.198-34.648c13.935,0,19.48,7.312,19.48,23.037v53.953h41.978v-57.523
	c0-14.475-0.71-25.547-8.573-34.121C842.3,58.675,829.787,54.218,814.415,54.218z"/>
<rect x="1036.665" y="3.65" fill="#1E3370" width="41.99" height="154.533"/>
<polygon fill="#1E3370" points="1158.504,57.424 1158.504,27.417 1117.237,27.417 1117.237,57.424 1099.376,57.424 1099.376,82.622 
	1117.237,82.622 1117.237,158.184 1158.504,158.184 1158.504,82.622 1176.378,82.622 1176.378,57.424 "/>
<path fill="#1E3370" d="M947.517,54.218c-0.527,0-1.066,0-1.606,0c-38.765,0.71-64.674,24.827-64.674,54.847
	c0,29.293,23.762,51.626,64.674,53.05c1.25,0,2.687,0,4.11,0c28.227,0,47.708-8.932,55.202-24.111l-31.624-10.907
	c-4.454,8.048-13.225,12.15-26.082,12.15c-0.527,0-1.066,0-1.606,0c-15.898-0.539-24.83-9.108-25.187-24.294h25.187h65.386v-1.607
	C1011.296,76.359,986.111,54.218,947.517,54.218z M945.91,94.944h-24.118c2.332-12.684,10.723-18.941,24.118-19.118h0.184
	c12.501,0,22.511,7.329,23.936,19.118H945.91z"/>
<path fill="#1E3370" d="M336.781,194.662c-0.185,0-0.362,0-0.725,0c-13.751,0.186-23.044,8.76-23.044,19.285
	c0,10.379,8.581,18.045,23.044,18.584c0.54,0,1.074,0,1.614,0c10.004,0,16.966-3.213,19.652-8.391l-11.255-3.938
	c-1.607,2.871-4.828,4.295-9.287,4.295c-0.185,0-0.546,0-0.725,0c-5.531-0.172-8.752-3.215-8.93-8.576h8.93h23.407v-0.539
	C359.463,202.343,350.531,194.662,336.781,194.662z M336.056,208.955h-8.569c0.896-4.466,3.933-6.612,8.569-6.784
	c0.178,0,0.178,0,0.178,0c4.466,0,8.041,2.674,8.587,6.784H336.056z"/>
<path fill="#1E3370" d="M257.091,194.662c-0.177,0-0.355,0-0.533,0c-13.752,0.186-23.038,8.76-23.038,19.285
	c0,10.379,8.391,18.045,23.038,18.584c0.533,0,0.889,0,1.429,0c10.182,0,17.156-3.213,19.836-8.391l-11.439-3.938
	c-1.607,2.871-4.637,4.295-9.293,4.295c-0.177,0-0.355,0-0.533,0c-5.71-0.172-8.93-3.215-8.93-8.576h8.93h23.401v-0.539
	C279.958,202.343,271.033,194.662,257.091,194.662z M256.558,208.955h-8.569c0.711-4.466,3.742-6.612,8.569-6.784
	c4.649,0,8.041,2.674,8.576,6.784H256.558z"/>
<polygon fill="#1E3370" points="416.992,195.73 398.418,195.73 382.869,211.272 382.869,176.789 368.216,176.789 368.216,231.111 
	382.869,231.111 382.869,215.383 398.946,231.111 418.775,231.111 397.872,212.88 "/>
<rect x="288.9" y="176.789" fill="#1E3370" width="15.003" height="54.322"/>
<path fill="#1E3370" d="M513.64,194.662c-13.396,0-23.755,8.391-23.755,18.942c0,10.354,10.176,18.927,23.755,18.927
	c13.403,0,23.762-8.391,23.762-18.927C537.401,203.053,527.043,194.662,513.64,194.662z M513.64,221.996
	c-5.539,0-8.931-3.227-8.931-8.392c0-5.188,3.392-8.588,8.931-8.588c5.534,0,8.937,3.399,8.937,8.588
	C522.577,218.77,519.173,221.996,513.64,221.996z"/>
<rect x="602.606" y="195.73" fill="#1E3370" width="15.016" height="35.381"/>
<path fill="#1E3370" d="M610.114,177.855c-4.466,0-8.218,3.057-8.218,6.811c0,3.741,3.568,6.955,8.218,6.955
	c4.464,0,8.22-3.043,8.22-6.955C618.334,180.912,614.75,177.855,610.114,177.855z"/>
<polygon fill="#1E3370" points="440.397,185.193 425.744,185.193 425.744,195.73 419.31,195.73 419.31,204.674 425.744,204.674 
	425.744,231.111 440.397,231.111 440.397,204.674 446.825,204.674 446.825,195.73 440.397,195.73 "/>
<polygon fill="#1E3370" points="658.889,212.88 678.002,195.73 659.417,195.73 643.886,211.272 643.886,176.789 629.228,176.789 
	629.228,231.111 643.886,231.111 643.886,215.383 659.956,231.111 679.793,231.111 "/>
<path fill="#1E3370" d="M468.083,204.134v-8.403h-14.112v35.381h14.831v-14.662c0-6.954,4.282-10.536,11.434-10.536
	c1.606,0,3.392,0.172,5.176,0.711l1.43-11.422c-1.786-0.184-3.214-0.184-4.288-0.184
	C476.12,195.019,470.765,198.233,468.083,204.134z"/>
<path fill="#1E3370" d="M576.174,194.662c-7.508,0-12.329,2.503-16.445,8.22v-7.151h-13.58v35.381h14.654v-14.833
	c0-7.862,2.331-12.145,8.929-12.145c5.011,0,6.974,2.49,6.974,8.034v18.943h15.006v-20.192c0-5.006-0.171-8.933-3.03-11.976
	C586.168,196.27,581.527,194.662,576.174,194.662z"/>
<polygon fill="#56BAA2" points="121.692,196.013 70.599,196.013 74.376,178.313 51.225,178.384 77.566,56.179 39.786,56.179 
	2.628,229.11 162.7,229.11 172.796,178.828 125.596,178.727 "/>
<path fill="#1E3370" d="M254.561,2.163L89.273,1.865L77.566,56.179L51.225,178.384l23.151-0.071l29.188-136.78h53.011
	l-30.979,137.194l47.2,0.102l38.85,0.083L254.561,2.163z M204.897,90.826c-14.494,11.281-34.915,16.073-45.679,1.425
	c-10.596-14.481-4.646-35.236,8.849-47.227c13.329-12.005,35.734-20.133,47.729-6.802C229.937,54.006,221.843,77.754,204.897,90.826
	z"/>
</svg>
