<?xml version='1.0' encoding='UTF-8' standalone='no'?>
<svg
  xmlns:dc="http://purl.org/dc/elements/1.1/"
  xmlns:cc="http://creativecommons.org/ns#"
  xmlns:rdf="http://www.w3.org/1999/02/22-rdf-syntax-ns#"
  xmlns:svg="http://www.w3.org/2000/svg"
  xmlns="http://www.w3.org/2000/svg"
  width="0.37569183in"
  height="0.41638049in"
  viewBox="0 0 375.69195 416.38062"
  x="0"
  y="0"
  version="1.2"
  id="svg114">
  <metadata
    id="metadata120">
    <rdf:RDF>
      <cc:Work
        rdf:about="">
        <dc:format>image/svg+xml</dc:format>
        <dc:type
          rdf:resource="http://purl.org/dc/dcmitype/StillImage"
        />
        <dc:title/>
      </cc:Work>
    </rdf:RDF>
  </metadata>
  <defs
    id="defs118"
  />
  <desc
    id="desc2">
    <referenceFile>DIP-Switch-3-Position_1_pcb.svg</referenceFile>
  </desc>
  <g
    id="silkscreen">
    <line
      y1="403.19156"
      stroke="#000000"
      y2="403.19156"
      class="other"
      x1="4.0000401"
      x2="371.69193"
      stroke-width="8.00008"
      stroke-linecap="round"
      id="line29"
    />
    <line
      y1="13.189061"
      stroke="#000000"
      y2="13.189061"
      class="other"
      x1="371.69193"
      x2="4.0000401"
      stroke-width="8.00008"
      stroke-linecap="round"
      id="line31"
    />
    <line
      y1="13.189061"
      stroke="#000000"
      y2="143.1899"
      class="other"
      x1="4.8459373"
      x2="4.8459373"
      stroke-width="8.00005"
      stroke-linecap="round"
      id="line33"
    />
    <line
      y1="273.19073"
      stroke="#000000"
      y2="403.19156"
      class="other"
      x1="4.8459373"
      x2="4.8459373"
      stroke-width="8.00005"
      stroke-linecap="round"
      id="line41"
    />
    <line
      y1="403.19156"
      stroke="#000000"
      y2="273.19073"
      class="other"
      x1="370.84607"
      x2="370.84607"
      stroke-width="8.00005"
      stroke-linecap="round"
      id="line45"
    />
    <line
      y1="143.1899"
      stroke="#000000"
      y2="13.189061"
      class="other"
      x1="370.84607"
      x2="370.84607"
      stroke-width="8.00005"
      stroke-linecap="round"
      id="line53"
    />
  </g>
  <g
    id="copper1">
    <g
      id="copper0">
      <circle
        stroke="#f7bd13"
        cx="84.846451"
        cy="358.19125"
        r="24"
        stroke-width="10"
        fill="none"
        id="connector0pin"
      />
      <path
        stroke="none"
        d="m 84.846451,300.00192 a 29.094675,29.094675 0 0 1 29.094669,29.09468 v 58.18935 a 29.094675,29.094675 0 0 1 -29.094669,29.09467 v 0 A 29.094675,29.094675 0 0 1 55.751776,387.28595 V 329.0966 A 29.094675,29.094675 0 0 1 84.846451,300.00192 Z M 65.75184,358.19127 a 19.094611,19.094611 0 1 0 38.18922,0 19.094611,19.094611 0 1 0 -38.18922,0 z"
        stroke-width="0"
        fill="#f7bd13"
        id="path197"
      />
      <circle
        stroke="#f7bd13"
        cx="184.84711"
        cy="358.19125"
        r="24"
        stroke-width="10"
        fill="none"
        id="connector1pin"
      />
      <path
        stroke="none"
        d="m 184.84709,300.00192 a 29.094675,29.094675 0 0 1 29.09467,29.09468 v 58.18935 a 29.094675,29.094675 0 0 1 -29.09467,29.09467 v 0 A 29.094675,29.094675 0 0 1 155.75242,387.28595 V 329.0966 a 29.094675,29.094675 0 0 1 29.09467,-29.09468 z m -19.09461,58.18935 a 19.094611,19.094611 0 1 0 38.18922,0 19.094611,19.094611 0 1 0 -38.18922,0 z"
        stroke-width="0"
        fill="#f7bd13"
        id="path199"
      />
      <circle
        stroke="#f7bd13"
        cx="284.84775"
        cy="358.19125"
        r="24"
        stroke-width="10"
        fill="none"
        id="connector2pin"
      />
      <path
        stroke="none"
        d="m 284.84773,300.00192 a 29.094675,29.094675 0 0 1 29.09468,29.09468 v 58.18935 a 29.094675,29.094675 0 0 1 -29.09468,29.09467 v 0 A 29.094675,29.094675 0 0 1 255.75306,387.28595 V 329.0966 a 29.094675,29.094675 0 0 1 29.09467,-29.09468 z m -19.09461,58.18935 a 19.094611,19.094611 0 1 0 38.18922,0 19.094611,19.094611 0 1 0 -38.18922,0 z"
        stroke-width="0"
        fill="#f7bd13"
        id="path201"
      />
      <circle
        stroke="#f7bd13"
        cx="284.84775"
        cy="58.18935"
        r="24"
        stroke-width="10"
        fill="none"
        id="connector3pin"
      />
      <path
        stroke="none"
        d="m 284.84773,0 a 29.094675,29.094675 0 0 1 29.09468,29.094675 V 87.284024 A 29.094675,29.094675 0 0 1 284.84773,116.3787 v 0 A 29.094675,29.094675 0 0 1 255.75306,87.284024 V 29.094675 A 29.094675,29.094675 0 0 1 284.84773,0 Z m -19.09461,58.18935 a 19.094611,19.094611 0 1 0 38.18922,0 19.094611,19.094611 0 1 0 -38.18922,0 z"
        stroke-width="0"
        fill="#f7bd13"
        id="path203"
      />
      <circle
        stroke="#f7bd13"
        cx="184.84711"
        cy="58.18935"
        r="24"
        stroke-width="10"
        fill="none"
        id="connector4pin"
      />
      <path
        stroke="none"
        d="m 184.84709,0 a 29.094675,29.094675 0 0 1 29.09467,29.094675 V 87.284024 A 29.094675,29.094675 0 0 1 184.84709,116.3787 v 0 A 29.094675,29.094675 0 0 1 155.75242,87.284024 V 29.094675 A 29.094675,29.094675 0 0 1 184.84709,0 Z m -19.09461,58.18935 a 19.094611,19.094611 0 1 0 38.18922,0 19.094611,19.094611 0 1 0 -38.18922,0 z"
        stroke-width="0"
        fill="#f7bd13"
        id="path205"
      />
      <circle
        stroke="#f7bd13"
        cx="84.846451"
        cy="58.18935"
        r="24"
        stroke-width="10"
        id="connector5pin"
        fill="none"
      />
      <path
        stroke="none"
        d="M 84.846451,0 A 29.094675,29.094675 0 0 1 113.94112,29.094675 V 87.284024 A 29.094675,29.094675 0 0 1 84.846451,116.3787 v 0 A 29.094675,29.094675 0 0 1 55.751776,87.284024 V 29.094675 A 29.094675,29.094675 0 0 1 84.846451,0 Z M 65.75184,58.18935 a 19.094611,19.094611 0 1 0 38.18922,0 19.094611,19.094611 0 1 0 -38.18922,0 z"
        gorn="0.1.0.15"
        stroke-width="0"
        fill="#f7bd13"
        id="path1"
      />
    </g>
  </g>
</svg>
