<?xml version='1.0' encoding='UTF-8' standalone='no'?>
<svg
  xmlns:dc="http://purl.org/dc/elements/1.1/"
  xmlns:cc="http://creativecommons.org/ns#"
  xmlns:rdf="http://www.w3.org/1999/02/22-rdf-syntax-ns#"
  xmlns:svg="http://www.w3.org/2000/svg"
  xmlns="http://www.w3.org/2000/svg"
  version="1.2"
  x="0in"
  y="0in"
  viewBox="0 0 384.2126 338.31966"
  height="0.33831966in"
  width="0.38421258in"
  id="svg42">
  <metadata
    id="metadata48">
    <rdf:RDF>
      <cc:Work
        rdf:about="">
        <dc:format>image/svg+xml</dc:format>
        <dc:type
          rdf:resource="http://purl.org/dc/dcmitype/StillImage"
        />
        <dc:title/>
      </cc:Work>
    </rdf:RDF>
  </metadata>
  <defs
    id="defs46"
  />
  <desc
    id="desc2">
    <referenceFile>prefix0000_9dc72277b5023dd100488a95d6de1214_1_pcb.svg</referenceFile>
  </desc>
  <g
    id="silkscreen">
    <line
      id="line187"
      y1="22.545132"
      x2="23.162241"
      x1="363.16223"
      y2="22.545132"
      stroke="#000000"
      stroke-width="10"
    />
    <rect
      y="101.37811"
      x="53.543293"
      height="222.44095"
      width="275.59055"
      id="rect166"
      fill="#000000"
      fill-opacity="1"
      stroke-width="11.58049107"
    />
    <line
      y2="333.31967"
      x1="362.17953"
      x2="22.022051"
      y1="333.31967"
      id="line189"
      stroke="#000000"
      stroke-width="10"
    />
    <line
      y2="333.50394"
      x1="23.052216"
      x2="23.052216"
      y1="22.480312"
      id="line164"
      stroke="#000000"
      stroke-width="10"
    />
    <path
      d="m 361.85688,230.59501 c 6.52305,0 11.80672,2.76684 11.80672,14.18217 v 54.05815 c 0,11.41533 -5.28367,14.43685 -11.80672,14.43685 v 0 c -6.52305,0 -11.81533,-3.02152 -11.81533,-14.43685 v -54.05815 c 0,-11.41533 5.29229,-14.18217 11.81533,-14.18217 z"
      id="path81"
      fill="#000000"
      stroke="none"
      stroke-width="0"
    />
    <path
      id="path78"
      d="m 22.610491,229.92171 c 6.523048,0 11.80672,2.76684 11.80672,14.18217 v 54.05815 c 0,11.41533 -5.283672,14.43685 -11.80672,14.43685 v 0 c -6.523048,0 -11.815327,-3.02152 -11.815327,-14.43685 l -10e-7,-54.05815 c 0,-11.41533 5.292286,-14.18217 11.815334,-14.18217 z"
      fill="#000000"
      stroke="none"
      stroke-width="0"
    />
    <path
      id="path75"
      d="m 21.977559,9.5783082 c 6.523049,0 11.815468,5.4192918 11.815468,14.1166948 v 32.995878 c 0,8.697404 -5.292419,15.879554 -11.815468,15.879554 v 0 c -6.52305,0 -11.80658,-7.18215 -11.80658,-15.87955 V 23.695003 c 0,-8.697403 5.28354,-14.1166948 11.80659,-14.1166948 z"
      fill="#000000"
      stroke="none"
      stroke-width="0"
    />
    <path
      id="path84"
      d="m 362.91092,9.6652681 c 6.52305,0 11.81547,5.4192919 11.81547,14.1166949 v 32.995878 c 0,8.697404 -5.29242,15.879554 -11.81547,15.879554 v 0 c -6.52305,0 -11.80658,-7.18215 -11.80658,-15.87955 V 23.781963 c 0,-8.697403 5.28354,-14.1166949 11.80659,-14.1166949 z"
      fill="#000000"
      stroke="none"
      stroke-width="0"
    />
    <line
      id="line6"
      y1="22.480312"
      x2="361.91733"
      x1="361.91733"
      y2="333.50394"
      stroke="#000000"
      stroke-width="10"
    />
  </g>
  <g
    id="silkscreen0">
    <path
      d="m 362.91092,9.6652681 c 6.52305,0 11.81547,5.4192919 11.81547,14.1166949 v 32.995878 c 0,8.697404 -5.29242,15.879554 -11.81547,15.879554 v 0 c -6.52305,0 -11.80658,-7.18215 -11.80658,-15.87955 V 23.781963 c 0,-8.697403 5.28354,-14.1166949 11.80659,-14.1166949 z"
      id="path64"
      fill="#000000"
      stroke="none"
      stroke-width="0"
    />
    <path
      id="path61"
      d="m 361.85688,230.59501 c 6.52305,0 11.80672,2.76684 11.80672,14.18217 v 54.05815 c 0,11.41533 -5.28367,14.43685 -11.80672,14.43685 v 0 c -6.52305,0 -11.81533,-3.02152 -11.81533,-14.43685 v -54.05815 c 0,-11.41533 5.29229,-14.18217 11.81533,-14.18217 z"
      fill="#000000"
      stroke="none"
      stroke-width="0"
    />
    <path
      d="m 22.610491,229.92171 c 6.523048,0 11.80672,2.76684 11.80672,14.18217 v 54.05815 c 0,11.41533 -5.283672,14.43685 -11.80672,14.43685 v 0 c -6.523048,0 -11.815327,-3.02152 -11.815327,-14.43685 l -10e-7,-54.05815 c 0,-11.41533 5.292286,-14.18217 11.815334,-14.18217 z"
      id="path58"
      fill="#000000"
      stroke="none"
      stroke-width="0"
    />
    <path
      d="m 21.977559,9.5783082 c 6.523049,0 11.815468,5.4192918 11.815468,14.1166948 v 32.995878 c 0,8.697404 -5.292419,15.879554 -11.815468,15.879554 v 0 c -6.52305,0 -11.80658,-7.18215 -11.80658,-15.87955 V 23.695003 c 0,-8.697403 5.28354,-14.1166948 11.80659,-14.1166948 z"
      id="path55"
      fill="#000000"
      stroke="none"
      stroke-width="0"
    />
  </g>
  <g
    id="copper1">
    <rect
      y="14.764493"
      x="165.74803"
      height="27.559055"
      width="11.811024"
      id="connector5pad"
      fill="#ffbf00"
      fill-opacity="1"
      stroke-width="4.42963982"
    />
    <rect
      id="connector6pad"
      width="11.811024"
      height="27.559055"
      x="205.1181"
      y="14.764493"
      fill="#ffbf00"
      fill-opacity="1"
      stroke-width="4.42963982"
    />
    <rect
      id="connector4pad"
      width="11.811024"
      height="27.559055"
      x="146.06299"
      y="14.763776"
      fill="#ffbf00"
      fill-opacity="1"
      stroke-width="4.42963982"
    />
    <rect
      y="14.763776"
      x="126.37795"
      height="27.559055"
      width="11.811024"
      id="connector3pad"
      fill="#ffbf00"
      fill-opacity="1"
      stroke-width="4.42963982"
    />
    <rect
      id="connector2pad"
      width="11.811024"
      height="27.559055"
      x="106.69291"
      y="14.763776"
      fill="#ffbf00"
      fill-opacity="1"
      stroke-width="4.42963982"
    />
    <rect
      y="14.763776"
      x="87.007874"
      height="27.559055"
      width="11.811024"
      id="connector1pad"
      fill="#ffbf00"
      fill-opacity="1"
      stroke-width="4.42963982"
    />
    <rect
      id="connector0pad"
      width="11.811024"
      height="27.559055"
      x="67.322838"
      y="14.763776"
      fill="#ffbf00"
      fill-opacity="1"
      stroke-width="4.42963982"
    />
    <rect
      y="14.764493"
      x="224.80315"
      height="27.559055"
      width="11.811024"
      id="connector7pad"
      fill="#ffbf00"
      fill-opacity="1"
      stroke-width="4.42963982"
    />
    <rect
      id="connector8pad"
      width="11.811024"
      height="27.559055"
      x="244.48819"
      y="14.764493"
      fill="#ffbf00"
      fill-opacity="1"
      stroke-width="4.42963982"
    />
    <rect
      y="14.764493"
      x="264.17322"
      height="27.559055"
      width="11.811024"
      id="connector9pad"
      fill="#ffbf00"
      fill-opacity="1"
      stroke-width="4.42963982"
    />
    <rect
      id="connector10pad"
      width="11.811024"
      height="27.559055"
      x="283.85828"
      y="14.764493"
      fill="#ffbf00"
      fill-opacity="1"
      stroke-width="4.42963982"
    />
    <rect
      y="14.764493"
      x="303.5433"
      height="27.559055"
      width="11.811024"
      id="connector11pad"
      fill="#ffbf00"
      fill-opacity="1"
      stroke-width="4.42963982"
    />
    <rect
      id="connector18pad"
      width="11.811024"
      height="27.559055"
      x="175.59055"
      y="63.582668"
      fill="#ffbf00"
      fill-opacity="1"
      stroke-width="4.42963982"
    />
    <rect
      y="63.582668"
      x="155.90552"
      height="27.559055"
      width="11.811024"
      id="connector19pad"
      fill="#ffbf00"
      fill-opacity="1"
      stroke-width="4.42963982"
    />
    <rect
      id="connector20pad"
      width="11.811024"
      height="27.559055"
      x="136.22047"
      y="63.582668"
      fill="#ffbf00"
      fill-opacity="1"
      stroke-width="4.42963982"
    />
    <rect
      y="63.582668"
      x="116.53543"
      height="27.559055"
      width="11.811024"
      id="connector21pad"
      fill="#ffbf00"
      fill-opacity="1"
      stroke-width="4.42963982"
    />
    <rect
      id="connector22pad"
      width="11.811024"
      height="27.559055"
      x="96.850395"
      y="63.582668"
      fill="#ffbf00"
      fill-opacity="1"
      stroke-width="4.42963982"
    />
    <rect
      y="63.582668"
      x="49.6063"
      height="27.559055"
      width="39.370079"
      id="connector23pad"
      fill="#ffbf00"
      fill-opacity="1"
      stroke-width="8.0873785"
    />
    <rect
      y="63.582668"
      x="195.27559"
      height="27.559055"
      width="11.811024"
      id="connector17pad"
      fill="#ffbf00"
      fill-opacity="1"
      stroke-width="4.42963982"
    />
    <rect
      id="connector16pad"
      width="11.811024"
      height="27.559055"
      x="214.96063"
      y="63.582668"
      fill="#ffbf00"
      fill-opacity="1"
      stroke-width="4.42963982"
    />
    <rect
      y="63.582668"
      x="234.64566"
      height="27.559055"
      width="11.811024"
      id="connector15pad"
      fill="#ffbf00"
      fill-opacity="1"
      stroke-width="4.42963982"
    />
    <rect
      id="connector14pad"
      width="11.811024"
      height="27.559055"
      x="254.3307"
      y="63.582668"
      fill="#ffbf00"
      fill-opacity="1"
      stroke-width="4.42963982"
    />
    <rect
      y="63.582668"
      x="274.01575"
      height="27.559055"
      width="11.811024"
      id="connector13pad"
      fill="#ffbf00"
      fill-opacity="1"
      stroke-width="4.42963982"
    />
    <rect
      id="connector12pad"
      width="39.370079"
      height="27.559055"
      x="293.70081"
      y="63.976559"
      fill="#ffbf00"
      fill-opacity="1"
      stroke-width="8.0873785"
    />
    <path
      d="m 361.93702,220.1181 c 11.95892,0 21.64565,3.42561 21.64565,17.55888 v 66.92913 c 0,14.13327 -9.68673,17.87419 -21.64565,17.87419 v 0 c -11.95892,0 -21.66143,-3.74092 -21.66143,-17.87419 v -66.92913 c 0,-14.13327 9.70252,-17.55888 21.66144,-17.55888 z"
      id="path181"
      fill="#f7bd13"
      stroke="none"
      stroke-width="0"
    />
    <path
      id="path183"
      d="m 362.56845,0 c 11.95892,0 21.64428,7.12796 21.64415,18.5433 l -4.9e-4,43.30709 c -1.3e-4,11.41534 -9.68523,20.82677 -21.64415,20.82677 v 0 c -11.95892,0 -21.66245,-9.41143 -21.66245,-20.82677 V 18.5433 C 340.90551,7.12796 350.60903,0 362.56795,0 Z"
      fill="#f7bd13"
      stroke="none"
      stroke-width="0"
    />
    <path
      d="m 21.724139,0.01514 c 11.95892,0 21.661688,7.11282 21.661688,18.52816 v 43.307085 c 0,11.41534 -9.702768,20.841915 -21.661688,20.841915 v 0 C 9.765219,82.6923 0.078741,73.26573 0.078741,61.85039 V 18.5433 c 0,-11.41534 9.686488,-18.52816 21.645408,-18.52816 z"
      id="path185"
      fill="#f7bd13"
      stroke="none"
      stroke-width="0"
    />
    <path
      id="path11"
      d="m 21.661433,220.1181 c 11.958921,0 21.645652,3.42561 21.645653,17.55888 v 66.92913 c 0,14.13327 -9.686731,17.87419 -21.645652,17.87419 v 0 C 9.702513,322.4803 1e-6,318.73938 1e-6,304.60611 L 0,237.67698 C 0,223.54371 9.702523,220.1181 21.661444,220.1181 Z"
      fill="#f7bd13"
      stroke="none"
      stroke-width="0"
    />
  </g>
</svg>
