<?xml version='1.0' encoding='UTF-8' standalone='no'?>
<svg
  xmlns="http://www.w3.org/2000/svg"
  xmlns:svg="http://www.w3.org/2000/svg"
  height="0.24519999in"
  gorn="0"
  version="1.1"
  id="Layer_1"
  y="0px"
  viewBox="0 0 245.17999 245.2"
  enable-background="new 0 0 24.518 33.002"
  x="0px"
  width="0.24518in"
  xml:space="preserve">
  <defs
    id="defs61">
    <linearGradient
      x1="-267.87961"
      id="SVGID_1_"
      y2="-465.3486"
      x2="-253.5798"
      gradientTransform="matrix(10.042367,0,0,-9.9999142,2741.4456,-4530.8552)"
      gradientUnits="userSpaceOnUse"
      y1="-465.3486">
      <stop
        offset="0"
        id="stop34"
        stop-color="#333333"
      />
      <stop
        offset="1"
        id="stop36"
        stop-color="#3C3C3C"
      />
    </linearGradient>
  </defs>
  <desc
    id="desc2">
    <referenceFile>Momentary-Switch-6mm-2pin_1_breadboard.svg</referenceFile>
  </desc>
  <g
    id="breadboard">
    <rect
      height="245.19791"
      y="0"
      x="1.0475003e-09"
      width="246.21873"
      id="rect20"
      stroke-width="9.99988"
    />
    <path
      d="m 246.20871,225.19806 c 0,11.00991 -8.99797,19.98984 -20.08474,19.98984 H 20.074692 C 9.0180453,245.1879 0,236.20797 0,225.19806 V 19.97983 C 0,8.9799242 9.0180453,1.2588393e-6 20.074692,1.2588393e-6 H 226.15409 c 11.07673,0 20.05462,8.9799229411607 20.05462,19.9798287411607 z"
      fill="#999999"
      id="path22"
      stroke-width="9.99988"
    />
    <ellipse
      cx="35.86129"
      cy="35.709694"
      id="circle24"
      rx="21.329987"
      ry="21.239819"
      stroke-width="9.99988"
    />
    <ellipse
      cx="210.94997"
      cy="36.079693"
      id="circle26"
      rx="21.329987"
      ry="21.239819"
      stroke-width="9.99988"
    />
    <ellipse
      cx="210.57841"
      cy="210.42819"
      id="circle28"
      rx="21.329987"
      ry="21.239819"
      stroke-width="9.99988"
    />
    <ellipse
      cx="35.489723"
      cy="210.03819"
      id="circle30"
      rx="21.329987"
      ry="21.239819"
      stroke-width="9.99988"
    />
    <ellipse
      fill="#3f3f3f"
      cx="123.09933"
      cy="122.58894"
      id="circle32"
      rx="71.802925"
      ry="71.49939"
      stroke-width="9.99988"
    />
    <ellipse
      fill="url(#SVGID_1_)"
      cx="123.09933"
      cy="122.58894"
      id="circle39"
      rx="71.802925"
      ry="71.49939"
      stroke-width="9.99988"
    />
    <ellipse
      opacity="0.6"
      enable-background="new    "
      cx="124.35463"
      cy="131.08887"
      id="circle41"
      rx="63.186569"
      ry="62.919456"
      stroke-width="9.99988"
    />
    <ellipse
      fill="#735348"
      cx="123.18971"
      cy="123.00894"
      id="circle43"
      rx="61.579792"
      ry="61.319473"
      stroke-width="9.99988"
    />
    <path
      d="m 33.09964,34.599704 c 0.42178,-0.999991 1.195042,-1.769985 2.28966,-1.959983 L 33.280403,19.259836 c -0.803389,0.129999 -1.65699,0.02 -2.450338,0.259997 l -0.02009,-0.06 c -4.970972,1.529987 -8.686647,5.219955 -10.584654,9.929915 z"
      fill="#ffffff"
      opacity="0.5"
      enable-background="new    "
      id="path45"
      stroke-width="9.99988"
    />
    <path
      d="m 208.16822,34.959701 c 0.41173,-1.019991 1.185,-1.789985 2.2997,-1.969983 l -2.07877,-13.379885 c -0.82348,0.149998 -1.66704,0.02 -2.46038,0.259998 l -0.0301,-0.07 c -4.95089,1.519987 -8.6766,5.209956 -10.57461,9.929915 z"
      fill="#ffffff"
      opacity="0.5"
      enable-background="new    "
      id="path47"
      stroke-width="9.99988"
    />
    <path
      d="m 207.82678,209.3082 c 0.41174,-1.01998 1.16492,-1.79999 2.27961,-1.96998 l -2.07876,-13.36988 c -0.82348,0.14999 -1.66704,0.02 -2.47042,0.25999 l -0.0201,-0.1 c -4.96093,1.52 -8.68665,5.20996 -10.57462,9.93992 z"
      fill="#ffffff"
      opacity="0.5"
      enable-background="new    "
      id="path49"
      stroke-width="9.99988"
    />
    <path
      d="m 32.728073,208.93821 c 0.411737,-1.01999 1.185,-1.75999 2.299702,-1.94999 l -2.108897,-13.38988 c -0.823474,0.17 -1.667033,0.02 -2.460379,0.27 l -0.02008,-0.07 c -4.970972,1.49998 -8.686647,5.20996 -10.60474,9.91991 z"
      fill="#ffffff"
      opacity="0.5"
      enable-background="new    "
      id="path51"
      stroke-width="9.99988"
    />
    <path
      d="m 145.22266,65.859436 c -4.77012,-1.849984 -9.7913,-3.179973 -15.10372,-3.779968 -13.21575,-1.469987 -25.86913,1.449988 -36.68476,7.419936 l -1.345677,3.479971 c 12.080967,-6.429945 26.150317,-9.409919 40.792097,-7.779934 4.49897,0.519996 8.87745,1.519987 13.06511,2.839977 z"
      fill="#ffffff"
      opacity="0.6"
      enable-background="new    "
      id="path53"
      stroke-width="9.99988"
    />
    <rect
      id="connector0pin"
      width="40.169464"
      height="39.999657"
      x="2.5105915"
      y="101.99912"
      fill="none"
      stroke="none"
      stroke-width="0"
    />
    <rect
      id="connector1pin"
      width="40.169464"
      height="39.999657"
      x="203.35793"
      y="101.99912"
      fill="none"
      stroke="none"
      stroke-width="0"
    />
  </g>
</svg>
