<?xml version='1.0' encoding='UTF-8' standalone='no'?>
<!-- Created with Fritzing (http://www.fritzing.org/) -->
  <svg
  xmlns="http://www.w3.org/2000/svg"
  version="1.2"
  x="0in"
  y="0in"
  baseProfile="tiny"
  viewBox="0 0 1200 330"
  height="0.33in"
  width="1.2in">
  <desc>
    <referenceFile>prefix0000_9dc72277b5023dd100488a95d6de1214_1_breadboard.svg</referenceFile>
  </desc>
  <g
    id="breadboard"
    gorn="0.1">
    <rect
      fill="#303030"
      x="0"
      y="30"
      id="middle"
      gorn="0.1.0"
      height="270"
      width="1200"
    />
    <rect
      fill="#3D3D3D"
      x="0"
      y="30"
      id="top"
      gorn="0.1.1"
      height="24.6"
      width="1200"
    />
    <rect
      fill="#000000"
      x="0"
      y="275.4"
      id="bottom"
      gorn="0.1.2"
      height="24.6"
      width="1200"
    />
    <polygon
      fill="#141414"
      id="right"
      points="1200,30,1192.5,54.6,1192.5,275.4,1200,300"
      gorn="0.1.3"
    />
    <polygon
      fill="#1F1F1F"
      id="left"
      points="0,30,7.5,54.6,7.5,275.4,0,300"
      gorn="0.1.4"
    />
    <polygon
      fill="#1C1C1C"
      id="left-upper-rect"
      points="50,115,7.5,114.6,5.6,135.8,5.6,165,50,165"
      gorn="0.1.5"
    />
    <polygon
      fill="#383838"
      id="left-lower-rect"
      points="7.5,215.5,50,215.5,50,165,5.6,165,5.6,194.2"
      gorn="0.1.6"
    />
    <path
      fill="#262626"
      d="M5.6,135.8l0,58.3c14.7,-1.7,26.2,-14,26.2,-29.2C31.8,149.7,20.4,137.5,5.6,135.8z"
      id="slot"
      gorn="0.1.7"
    />
    <path
      fill="#303030"
      d="M7.5,54.6L7.5,114.5c23.8,4.5,41.9,25.3,41.9,50.4c0,25.1,-18,46,-41.9,50.5L7.5,215.5l50,0L57.5,54.6L7.5,54.6z"
      id="cover"
      gorn="0.1.8"
    />
    <circle
      fill="#212121"
      r="20.6"
      cx="65"
      cy="234.7"
    />
    <text
      fill="#e6e6e6"
      x="65"
      stroke="none"
      y="165"
      id="label"
      font-family="OCRA"
      text-anchor="start"
      font-size="80"
      gorn="0.1.10">IC</text>
    <rect
      fill="#8C8C8C"
      x="35"
      y="286.6"
      id="connector0pin"
      gorn="0.1.11"
      height="43.4"
      width="30"
    />
    <rect
      fill="#8C8C8C"
      x="35"
      y="300"
      id="connector0terminal"
      gorn="0.1.12"
      height="30"
      width="30"
    />
    <polygon
      fill="#8C8C8C"
      points="35,286.6,35,306.6,65,306.6,85,297.4,85,286.6"
    />
    <rect
      fill="#8C8C8C"
      x="35"
      id="connector23pin"
      gorn="0.1.14"
      height="43.4"
      width="30"
    />
    <rect
      fill="#8C8C8C"
      x="35"
      id="connector23terminal"
      gorn="0.1.15"
      height="30"
      width="30"
    />
    <polygon
      fill="#8C8C8C"
      points="85,43.4,85,32.6,65,23.4,35,23.4,35,43.4"
    />
    <rect
      fill="#8C8C8C"
      x="1135"
      y="286.6"
      id="connector11pin"
      gorn="0.1.17"
      height="43.4"
      width="30"
    />
    <rect
      fill="#8C8C8C"
      x="1135"
      y="300"
      id="connector11terminal"
      gorn="0.1.18"
      height="30"
      width="30"
    />
    <polygon
      fill="#8C8C8C"
      points="1115,286.6,1115,297.4,1135,306.6,1165,306.6,1165,286.6"
    />
    <rect
      fill="#8C8C8C"
      x="1135"
      y="0"
      id="connector12pin"
      gorn="0.1.20"
      height="43.4"
      width="30"
    />
    <rect
      fill="#8C8C8C"
      x="1135"
      y="0"
      id="connector12terminal"
      gorn="0.1.21"
      height="30"
      width="30"
    />
    <polygon
      fill="#8C8C8C"
      points="1165,43.4,1165,23.4,1135,23.4,1115,32.6,1115,43.4"
    />
    <rect
      fill="#8C8C8C"
      x="135"
      y="0"
      id="connector22pin"
      gorn="0.1.23"
      height="43.4"
      width="30"
    />
    <rect
      fill="#8C8C8C"
      x="135"
      id="connector22terminal"
      gorn="0.1.24"
      height="30"
      width="30"
    />
    <polygon
      fill="#8C8C8C"
      points="185,43.4,185,32.6,165,23.4,135,23.4,115,32.6,115,43.4"
    />
    <rect
      fill="#8C8C8C"
      x="235"
      y="0"
      id="connector21pin"
      gorn="0.1.26"
      height="43.4"
      width="30"
    />
    <rect
      fill="#8C8C8C"
      x="235"
      id="connector21terminal"
      gorn="0.1.27"
      height="30"
      width="30"
    />
    <polygon
      fill="#8C8C8C"
      points="285,43.4,285,32.6,265,23.4,235,23.4,215,32.6,215,43.4"
    />
    <rect
      fill="#8C8C8C"
      x="335"
      y="0"
      id="connector20pin"
      gorn="0.1.29"
      height="43.4"
      width="30"
    />
    <rect
      fill="#8C8C8C"
      x="335"
      id="connector20terminal"
      gorn="0.1.30"
      height="30"
      width="30"
    />
    <polygon
      fill="#8C8C8C"
      points="385,43.4,385,32.6,365,23.4,335,23.4,315,32.6,315,43.4"
    />
    <rect
      fill="#8C8C8C"
      x="435"
      y="0"
      id="connector19pin"
      gorn="0.1.32"
      height="43.4"
      width="30"
    />
    <rect
      fill="#8C8C8C"
      x="435"
      id="connector19terminal"
      gorn="0.1.33"
      height="30"
      width="30"
    />
    <polygon
      fill="#8C8C8C"
      points="485,43.4,485,32.6,465,23.4,435,23.4,415,32.6,415,43.4"
    />
    <rect
      fill="#8C8C8C"
      x="535"
      y="0"
      id="connector18pin"
      gorn="0.1.35"
      height="43.4"
      width="30"
    />
    <rect
      fill="#8C8C8C"
      x="535"
      id="connector18terminal"
      gorn="0.1.36"
      height="30"
      width="30"
    />
    <polygon
      fill="#8C8C8C"
      points="585,43.4,585,32.6,565,23.4,535,23.4,515,32.6,515,43.4"
    />
    <rect
      fill="#8C8C8C"
      x="635"
      y="0"
      id="connector17pin"
      gorn="0.1.38"
      height="43.4"
      width="30"
    />
    <rect
      fill="#8C8C8C"
      x="635"
      id="connector17terminal"
      gorn="0.1.39"
      height="30"
      width="30"
    />
    <polygon
      fill="#8C8C8C"
      points="685,43.4,685,32.6,665,23.4,635,23.4,615,32.6,615,43.4"
    />
    <rect
      fill="#8C8C8C"
      x="735"
      y="0"
      id="connector16pin"
      gorn="0.1.41"
      height="43.4"
      width="30"
    />
    <rect
      fill="#8C8C8C"
      x="735"
      id="connector16terminal"
      gorn="0.1.42"
      height="30"
      width="30"
    />
    <polygon
      fill="#8C8C8C"
      points="785,43.4,785,32.6,765,23.4,735,23.4,715,32.6,715,43.4"
    />
    <rect
      fill="#8C8C8C"
      x="835"
      y="0"
      id="connector15pin"
      gorn="0.1.44"
      height="43.4"
      width="30"
    />
    <rect
      fill="#8C8C8C"
      x="835"
      id="connector15terminal"
      gorn="0.1.45"
      height="30"
      width="30"
    />
    <polygon
      fill="#8C8C8C"
      points="885,43.4,885,32.6,865,23.4,835,23.4,815,32.6,815,43.4"
    />
    <rect
      fill="#8C8C8C"
      x="935"
      y="0"
      id="connector14pin"
      gorn="0.1.47"
      height="43.4"
      width="30"
    />
    <rect
      fill="#8C8C8C"
      x="935"
      id="connector14terminal"
      gorn="0.1.48"
      height="30"
      width="30"
    />
    <polygon
      fill="#8C8C8C"
      points="985,43.4,985,32.6,965,23.4,935,23.4,915,32.6,915,43.4"
    />
    <rect
      fill="#8C8C8C"
      x="1035"
      y="0"
      id="connector13pin"
      gorn="0.1.50"
      height="43.4"
      width="30"
    />
    <rect
      fill="#8C8C8C"
      x="1035"
      id="connector13terminal"
      gorn="0.1.51"
      height="30"
      width="30"
    />
    <polygon
      fill="#8C8C8C"
      points="1085,43.4,1085,32.6,1065,23.4,1035,23.4,1015,32.6,1015,43.4"
    />
    <rect
      fill="#8C8C8C"
      x="135"
      y="286.6"
      id="connector1pin"
      gorn="0.1.53"
      height="43.4"
      width="30"
    />
    <rect
      fill="#8C8C8C"
      x="135"
      y="300"
      id="connector1terminal"
      gorn="0.1.54"
      height="30"
      width="30"
    />
    <polygon
      fill="#8C8C8C"
      points="115,286.6,115,297.4,135,306.6,165,306.6,185,297.4,185,286.6"
    />
    <rect
      fill="#8C8C8C"
      x="235"
      y="286.6"
      id="connector2pin"
      gorn="0.1.56"
      height="43.4"
      width="30"
    />
    <rect
      fill="#8C8C8C"
      x="235"
      y="300"
      id="connector2terminal"
      gorn="0.1.57"
      height="30"
      width="30"
    />
    <polygon
      fill="#8C8C8C"
      points="215,286.6,215,297.4,235,306.6,265,306.6,285,297.4,285,286.6"
    />
    <rect
      fill="#8C8C8C"
      x="335"
      y="286.6"
      id="connector3pin"
      gorn="0.1.59"
      height="43.4"
      width="30"
    />
    <rect
      fill="#8C8C8C"
      x="335"
      y="300"
      id="connector3terminal"
      gorn="0.1.60"
      height="30"
      width="30"
    />
    <polygon
      fill="#8C8C8C"
      points="315,286.6,315,297.4,335,306.6,365,306.6,385,297.4,385,286.6"
    />
    <rect
      fill="#8C8C8C"
      x="435"
      y="286.6"
      id="connector4pin"
      gorn="0.1.62"
      height="43.4"
      width="30"
    />
    <rect
      fill="#8C8C8C"
      x="435"
      y="300"
      id="connector4terminal"
      gorn="0.1.63"
      height="30"
      width="30"
    />
    <polygon
      fill="#8C8C8C"
      points="415,286.6,415,297.4,435,306.6,465,306.6,485,297.4,485,286.6"
    />
    <rect
      fill="#8C8C8C"
      x="535"
      y="286.6"
      id="connector5pin"
      gorn="0.1.65"
      height="43.4"
      width="30"
    />
    <rect
      fill="#8C8C8C"
      x="535"
      y="300"
      id="connector5terminal"
      gorn="0.1.66"
      height="30"
      width="30"
    />
    <polygon
      fill="#8C8C8C"
      points="515,286.6,515,297.4,535,306.6,565,306.6,585,297.4,585,286.6"
    />
    <rect
      fill="#8C8C8C"
      x="635"
      y="286.6"
      id="connector6pin"
      gorn="0.1.68"
      height="43.4"
      width="30"
    />
    <rect
      fill="#8C8C8C"
      x="635"
      y="300"
      id="connector6terminal"
      gorn="0.1.69"
      height="30"
      width="30"
    />
    <polygon
      fill="#8C8C8C"
      points="615,286.6,615,297.4,635,306.6,665,306.6,685,297.4,685,286.6"
    />
    <rect
      fill="#8C8C8C"
      x="735"
      y="286.6"
      id="connector7pin"
      gorn="0.1.71"
      height="43.4"
      width="30"
    />
    <rect
      fill="#8C8C8C"
      x="735"
      y="300"
      id="connector7terminal"
      gorn="0.1.72"
      height="30"
      width="30"
    />
    <polygon
      fill="#8C8C8C"
      points="715,286.6,715,297.4,735,306.6,765,306.6,785,297.4,785,286.6"
    />
    <rect
      fill="#8C8C8C"
      x="835"
      y="286.6"
      id="connector8pin"
      gorn="0.1.74"
      height="43.4"
      width="30"
    />
    <rect
      fill="#8C8C8C"
      x="835"
      y="300"
      id="connector8terminal"
      gorn="0.1.75"
      height="30"
      width="30"
    />
    <polygon
      fill="#8C8C8C"
      points="815,286.6,815,297.4,835,306.6,865,306.6,885,297.4,885,286.6"
    />
    <rect
      fill="#8C8C8C"
      x="935"
      y="286.6"
      id="connector9pin"
      gorn="0.1.77"
      height="43.4"
      width="30"
    />
    <rect
      fill="#8C8C8C"
      x="935"
      y="300"
      id="connector9terminal"
      gorn="0.1.78"
      height="30"
      width="30"
    />
    <polygon
      fill="#8C8C8C"
      points="915,286.6,915,297.4,935,306.6,965,306.6,985,297.4,985,286.6"
    />
    <rect
      fill="#8C8C8C"
      x="1035"
      y="286.6"
      id="connector10pin"
      gorn="0.1.80"
      height="43.4"
      width="30"
    />
    <rect
      fill="#8C8C8C"
      x="1035"
      y="300"
      id="connector10terminal"
      gorn="0.1.81"
      height="30"
      width="30"
    />
    <polygon
      fill="#8C8C8C"
      points="1015,286.6,1015,297.4,1035,306.6,1065,306.6,1085,297.4,1085,286.6"
    />
  </g>
</svg>
